<?xml version="1.0" encoding="UTF-8" standalone="no"?>
<svg
   xmlns:dc="http://purl.org/dc/elements/1.1/"
   xmlns:cc="http://creativecommons.org/ns#"
   xmlns:rdf="http://www.w3.org/1999/02/22-rdf-syntax-ns#"
   xmlns:svg="http://www.w3.org/2000/svg"
   xmlns="http://www.w3.org/2000/svg"
   xmlns:sodipodi="http://sodipodi.sourceforge.net/DTD/sodipodi-0.dtd"
   xmlns:inkscape="http://www.inkscape.org/namespaces/inkscape"
   width="166.131"
   height="166.131"
   viewBox="0 0 155.74781 155.7478"
   id="svg2"
   version="1.1"
   inkscape:version="1.0.2 (e86c870879, 2021-01-15)"
   sodipodi:docname="hello-world-gtk.svg">
  <defs
     id="defs4">
    <inkscape:path-effect
       effect="spiro"
       id="path-effect4197"
       is_visible="true"
       lpeversion="0" />
    <clipPath
       id="clipPath18">
      <path
         inkscape:connector-curvature="0"
         d="M 0,600 H 800 V 0 H 0 Z"
         id="path20" />
    </clipPath>
  </defs>
  <sodipodi:namedview
     id="base"
     pagecolor="#ffffff"
     bordercolor="#666666"
     borderopacity="1.0"
     inkscape:pageopacity="0.0"
     inkscape:pageshadow="2"
     inkscape:zoom="2.4612393"
     inkscape:cx="201.24129"
     inkscape:cy="97.618292"
     inkscape:document-units="px"
     inkscape:current-layer="layer1"
     showgrid="false"
     inkscape:window-width="1920"
     inkscape:window-height="1043"
     inkscape:window-x="0"
     inkscape:window-y="0"
     inkscape:window-maximized="1"
     fit-margin-top="10"
     fit-margin-left="10"
     fit-margin-right="10"
     fit-margin-bottom="10"
     inkscape:document-rotation="0"
     inkscape:pagecheckerboard="true"
     units="px" />
  <metadata
     id="metadata7">
    <rdf:RDF>
      <cc:Work
         rdf:about="">
        <dc:format>image/svg+xml</dc:format>
        <dc:type
           rdf:resource="http://purl.org/dc/dcmitype/StillImage" />
        <dc:title></dc:title>
      </cc:Work>
    </rdf:RDF>
  </metadata>
  <g
     inkscape:label="Layer 1"
     inkscape:groupmode="layer"
     id="layer1"
     transform="translate(-94.443047,-208.10078)">
    <g
       id="g16"
       clip-path="url(#clipPath18)"
       transform="matrix(0.5978701,0,0,-0.59787114,-66.833004,469.10286)">
      <g
         id="g4413"
         transform="matrix(0.81,0,0,0.81,76.000608,63.616306)">
        <g
           style="stroke:none"
           id="g4407"
           transform="translate(554.43,299.61)">
          <path
             id="path4409"
             style="fill:#7cb7ed;stroke:none"
             d="m 0,0 c 0,-85.29 -69.14,-154.43 -154.43,-154.43 -85.288,0 -154.43,69.139 -154.43,154.43 0,85.289 69.14,154.43 154.43,154.43 C -69.14,154.43 0,85.289 0,0"
             inkscape:connector-curvature="0" />
          <path
             id="path4411"
             d="m 3.0332,0 c 0,-86.965 -70.498,-157.46 -157.46,-157.46 -86.963,0 -157.46,70.497 -157.46,157.46 0,86.964 70.498,157.46 157.46,157.46 86.965,0 157.46,-70.496 157.46,-157.46"
             style="fill:none;stroke:none;stroke-width:8.36301;stroke-miterlimit:4;stroke-dasharray:none;stroke-opacity:1"
             inkscape:connector-curvature="0" />
        </g>
        <g
           transform="translate(447,151.47)"
           id="g26">
          <path
             inkscape:connector-curvature="0"
             d="m 0,0 c 0,0 -48.604,-15.479 -97.901,1.301 0,0 28.344,4.175 41.625,11.737 C -42.995,20.601 0,0 0,0"
             style="fill:#ffffff"
             id="path28" />
        </g>
        <g
           transform="translate(487.95,212.66)"
           id="g30">
          <path
             inkscape:connector-curvature="0"
             d="m 0,0 c 0,0 -0.919,26.656 -1.379,39.064 -0.46,12.409 4.136,20.682 -1.839,32.171 -5.974,11.49 -1.379,20.682 -6.893,21.141 -5.515,0.459 -22.979,3.677 -32.63,0 -9.652,-3.677 -30.793,12.409 -31.252,22.979 -0.459,10.57 -3.676,18.383 -3.676,18.383 0,0 11.949,19.262 15.166,18.593 3.217,-0.669 3.677,12.199 5.975,13.118 2.298,0.92 26.655,7.354 33.549,7.354 6.893,0 1.838,-7.354 1.838,-7.354 L 0,157.639 l 3.677,8.273 18.383,-5.515 c 0,0 -0.459,11.03 -4.596,12.409 -4.137,1.378 -21.601,9.651 -21.601,9.651 0,0 3.678,-6.894 1.839,-8.732 -1.839,-1.839 -7.813,8.732 -7.813,8.732 l -13.327,5.055 c 0,0 -9.192,-1.379 -14.248,-3.217 -5.055,-1.838 -7.353,-10.57 -7.353,-10.57 0,0 -9.191,-4.596 -15.166,-3.217 -5.975,1.378 -4.137,12.868 -4.137,12.868 0,0 11.03,0.919 11.949,4.136 0.919,3.217 -7.812,9.192 -7.812,9.192 l 6.893,3.217 6.434,11.232 10.111,-1.122 3.217,11.95 -0.807,11.806 c 0,0 67.293,-31.638 88.51,-83.995 l -10.953,6.928 4.596,-10.111 1.838,1.379 5.515,-10.11 v -8.273 l -2.757,-12.71 c 0,0 -17.515,29.546 -25.737,37.068 0,0 11.957,-27.574 26.197,-41.822 l 4.595,4.754 V 94.662 L 53.311,85.01 48.256,69.844 47.336,57.895 V 43.648 L 40.442,36.755 33.549,31.699 V 25.724 L 26.655,16.521 17.004,6.411 7.353,-0.024 H 0 Z"
             style="fill:#0fb55e;stroke:#0fb55e;stroke-width:6.6904;stroke-linecap:round;stroke-linejoin:round;stroke-miterlimit:4;stroke-dasharray:none;stroke-opacity:1"
             id="path32" />
        </g>
        <path
           id="path36"
           style="fill:#0fb55e;stroke:#0fb55e;stroke-width:6.6904;stroke-linecap:round;stroke-linejoin:round;stroke-miterlimit:4;stroke-dasharray:none;stroke-opacity:1"
           d="m 355.05,160.34 -9.191,11.949 1.379,6.435 h 5.974 l -1.274,6.589 1.734,8.577 1.378,6.433 5.199,5.407 c 0,0 11.807,4.705 10.428,21.25 0,0 10.109,13.788 7.812,21.14 -2.298,7.353 -16.145,6.894 -16.145,6.894 l -22.919,9.651 c 0,0 -1.838,9.652 -8.272,10.571 -6.435,0.918 -8.273,-3.677 -11.031,0 -2.758,3.676 -6.576,9.194 -13.858,9.652 -7.282,0.458 -16.474,6.432 -16.474,6.432 0,0 -1.379,5.055 -9.191,3.217 0,0 -5.056,5.056 -2.758,15.167 0,0 -0.459,5.515 -7.354,3.217 0,0 -5.514,5.975 -7.353,5.975 -1.838,0 -4.596,17.464 3.678,25.277 0,0 7.812,9.191 16.545,3.676 0,0 -0.461,-8.732 0.918,-12.868 1.379,-4.136 4.136,5.975 4.136,5.975 l 0.46,12.868 c 0,0 5.975,2.758 11.031,7.353 5.054,4.596 3.216,10.571 10.11,15.166 6.893,4.596 8.272,0 8.272,0 l 0.459,7.813 h 6.435 l 15.626,6.894 c 0,0 -7.354,-0.46 -10.111,3.677 l 19.761,10.57 v 5.974 l -1.355,12.409 -4.619,-5.515 -0.918,5.515 -8.733,1.121 h -3.216 l -7.354,-3.419 -0.46,-4.596 -8.272,-3.676 -4.137,4.136 3.218,4.136 3.216,3.419 8.566,11.597 c 0,0 -56.809,-31.864 -73.36,-88.241 0,0 -0.925,-17.772 -1.384,-24.206 -0.46,-6.434 5.054,-12.408 5.054,-12.408 h 5.056 l 1.838,-4.596 4.136,-1.379 2.299,-1.379 1.378,-3.583 1.838,-6.528 4.137,-0.92 2.297,-4.135 2.758,-0.46 -0.919,3.676 h 3.677 l 1.378,-3.216 -4.136,-3.217 -1.379,-3.218 -0.459,-7.352 0.459,-5.516 0.46,-5.055 -4.136,-2.298 0.918,-5.055 0.461,-3.217 v -5.056 l -2.299,-0.919 16.545,-22.519 5.056,-1.839 3.216,-0.459 5.056,-1.839 4.137,-7.812 c 0,0 13.327,-29.415 15.166,-33.55 1.838,-4.124 21.141,-21.129 29.412,-19.75"
           inkscape:connector-curvature="0" />
        <g
           transform="translate(400,455.04)"
           id="g38">
          <path
             inkscape:connector-curvature="0"
             d="m 0,0 c 51.067,0 79.29,-21.887 79.29,-21.887 0,0 -18.978,-8.148 -48.391,0 0,0 -22.689,-1.096 -38.656,-7.819 -15.966,-6.723 -24.437,10.924 -24.437,10.924 0,0 -13.981,-9.608 -38.049,1.919 0,0 31.781,16.863 70.243,16.863"
             style="fill:#ffffff"
             id="path40" />
        </g>
        <g
           style="fill:none;fill-opacity:1;stroke:#2c89a0;stroke-opacity:1"
           transform="translate(554.43,299.61)"
           id="g22">
          <path
             inkscape:connector-curvature="0"
             d="m 0,0 c 0,-85.29 -69.14,-154.43 -154.43,-154.43 -85.288,0 -154.43,69.139 -154.43,154.43 0,85.289 69.14,154.43 154.43,154.43 C -69.14,154.43 0,85.289 0,0"
             style="fill:none;fill-opacity:1;stroke:#2c89a0;stroke-opacity:1"
             id="path24" />
          <path
             inkscape:connector-curvature="0"
             style="fill:none;fill-opacity:1;stroke:#2c89a0;stroke-width:6.6904;stroke-miterlimit:4;stroke-dasharray:none;stroke-opacity:1"
             d="m 3.0332,0 c 0,-86.965 -70.498,-157.46 -157.46,-157.46 -86.963,0 -157.46,70.497 -157.46,157.46 0,86.964 70.498,157.46 157.46,157.46 86.965,0 157.46,-70.496 157.46,-157.46"
             id="path3655" />
        </g>
      </g>
    </g>
    <ellipse
       style="fill:#000000;fill-opacity:1;stroke:none;stroke-width:2;stroke-linecap:round;stroke-linejoin:round;stroke-miterlimit:4;stroke-dasharray:none;stroke-dashoffset:0;stroke-opacity:1"
       id="path4144"
       cx="137.06685"
       cy="275.07187"
       rx="7.4999871"
       ry="7.1428571" />
    <ellipse
       ry="7.1428571"
       rx="7.4999871"
       cy="275.07187"
       cx="209.06673"
       id="ellipse4146"
       style="fill:#000000;fill-opacity:1;stroke:none;stroke-width:2;stroke-linecap:round;stroke-linejoin:round;stroke-miterlimit:4;stroke-dasharray:none;stroke-dashoffset:0;stroke-opacity:1" />
    <path
       style="fill:none;fill-rule:evenodd;stroke:#000000;stroke-width:3;stroke-linecap:round;stroke-linejoin:round;stroke-miterlimit:4;stroke-dasharray:none;stroke-opacity:1"
       d="m 190.14201,287.27256 c -1.42065,14.7127 -32.4301,15.2873 -34.28566,0"
       id="path4167"
       inkscape:connector-curvature="0"
       sodipodi:nodetypes="cc" />
    <ellipse
       style="fill:#ffaaaa;fill-opacity:1;stroke:none;stroke-width:3;stroke-linecap:round;stroke-linejoin:round;stroke-miterlimit:4;stroke-dasharray:none;stroke-dashoffset:0;stroke-opacity:1"
       id="path4169"
       cx="122.72389"
       cy="292.85144"
       rx="5.8895793"
       ry="3.016619" />
    <ellipse
       ry="3.016619"
       rx="5.8895793"
       cy="292.85144"
       cx="216.72372"
       id="ellipse4171"
       style="fill:#ffaaaa;fill-opacity:1;stroke:none;stroke-width:3;stroke-linecap:round;stroke-linejoin:round;stroke-miterlimit:4;stroke-dasharray:none;stroke-dashoffset:0;stroke-opacity:1" />
    <text
       xml:space="preserve"
       style="font-style:normal;font-variant:normal;font-weight:normal;font-stretch:normal;line-height:0%;font-family:'DejaVu Sans';-inkscape-font-specification:'DejaVu Sans, Normal';text-align:start;letter-spacing:0px;word-spacing:0px;writing-mode:lr-tb;text-anchor:start;fill:#000000;fill-opacity:1;stroke:none;stroke-width:1px;stroke-linecap:butt;stroke-linejoin:miter;stroke-opacity:1"
       x="149.63176"
       y="337.86508"
       id="text4152"><tspan
         sodipodi:role="line"
         id="tspan4154"
         x="149.63176"
         y="337.86508"
         style="font-style:normal;font-variant:normal;font-weight:normal;font-stretch:normal;font-size:12.5px;line-height:1.25;font-family:'Ume Gothic S5';-inkscape-font-specification:'Ume Gothic S5'"> </tspan></text>
  </g>
</svg>
